<?xml version="1.0" encoding="UTF-8" standalone="no"?>
<!DOCTYPE svg PUBLIC "-//W3C//DTD SVG 1.1//EN" "http://www.w3.org/Graphics/SVG/1.1/DTD/svg11.dtd">
<svg width="100%" height="100%" viewBox="0 0 465 190" version="1.1" xmlns="http://www.w3.org/2000/svg" xmlns:xlink="http://www.w3.org/1999/xlink" xml:space="preserve" xmlns:serif="http://www.serif.com/" style="fill-rule:evenodd;clip-rule:evenodd;stroke-linejoin:round;stroke-miterlimit:2;">
    <g transform="matrix(1,0,0,1,-73.135572,-684.745676)">
        <g id="Logo-1" serif:id="Logo 1">
        </g>
        <g id="Logo-2" serif:id="Logo 2">
        </g>
        <g id="Logo-21" serif:id="Logo 2" transform="matrix(1,0,0,1,-193.361377,374.283137)">
            <g transform="matrix(1,0,0,1,7.67091,-0.121251)">
                <g transform="matrix(0.950252,0,0,0.976829,-12.071725,253.078572)">
                    <path d="M333.044,167.128L333.044,59.637L339.779,59.637L391.133,145.783L387.555,145.783L438.595,59.637L445.329,59.637L445.383,167.128L437.49,167.128L437.436,71.511L439.594,71.511L391.185,152.796L387.187,152.796L338.517,71.511L340.936,71.511L340.936,167.128L333.044,167.128Z" style="fill:white;fill-rule:nonzero;"/>
                    <g transform="matrix(1.052352,0,0,1.02372,12.703702,-259.08165)">
                        <path d="M478.385,415.524C475.72,414.899 473.138,414.086 470.639,413.085C463.983,410.418 458.196,406.676 453.279,401.859C448.362,397.042 444.537,391.413 441.804,384.972C439.071,378.53 437.704,371.484 437.704,363.834C437.704,356.184 439.071,349.138 441.804,342.698C444.537,336.256 448.363,330.624 453.283,325.802C458.205,320.98 463.989,317.238 470.634,314.578C477.281,311.915 484.521,310.584 492.354,310.584C500.187,310.584 507.421,311.912 514.057,314.568C520.694,317.224 526.469,320.958 531.382,325.769C536.296,330.578 540.119,336.21 542.852,342.665C545.587,349.118 546.954,356.176 546.954,363.838C546.954,371.503 545.587,378.56 542.852,385.01C540.119,391.46 536.296,397.09 531.382,401.901C526.469,406.71 520.694,410.443 514.057,413.099C511.792,414.006 509.458,414.758 507.055,415.355L507.055,407.985C508.363,407.589 509.647,407.135 510.907,406.626C516.61,404.321 521.576,401.071 525.806,396.876C530.037,392.681 533.328,387.787 535.678,382.195C538.028,376.601 539.203,370.476 539.203,363.82C539.203,357.162 538.029,351.043 535.683,345.463C533.337,339.882 530.048,334.993 525.815,330.796C521.584,326.599 516.616,323.349 510.912,321.044C505.207,318.738 499.021,317.585 492.354,317.585C485.687,317.585 479.497,318.738 473.784,321.046C468.073,323.353 463.098,326.605 458.859,330.803C454.622,335.002 451.328,339.893 448.978,345.478C446.628,351.06 445.453,357.174 445.453,363.817C445.453,370.461 446.627,376.58 448.976,382.174C451.324,387.767 454.615,392.667 458.85,396.874C463.086,401.08 468.062,404.333 473.777,406.633C475.28,407.238 476.816,407.763 478.385,408.209L478.385,415.524Z" style="fill:white;"/>
                    </g>
                    <path d="M616.231,167.128L616.231,59.637L622.967,59.637L674.321,145.783L670.742,145.783L721.783,59.637L728.517,59.637L728.571,167.128L720.678,167.128L720.624,71.511L722.782,71.511L674.373,152.796L670.375,152.796L621.704,71.511L624.124,71.511L624.124,167.128L616.231,167.128Z" style="fill:white;fill-rule:nonzero;"/>
                </g>
                <g id="Tree-in-O" serif:id="Tree in O">
                    <g transform="matrix(1.337041,0,0,0.909771,-167.710853,30.69342)">
                        <rect x="492.354" y="331.707" width="2.644" height="92.047" style="fill:rgb(235,235,235);"/>
                        <clipPath id="_clip1">
                            <rect x="492.354" y="331.707" width="2.644" height="92.047"/>
                        </clipPath>
                        <g clip-path="url(#_clip1)">
                            <g transform="matrix(0.74792,0,0,1.014025,125.434373,-5.426833)">
                                <path d="M490.586,363.533L490.586,332.471L494.121,332.471L494.121,363.609L492.392,365.338L490.586,363.533ZM494.121,368.609L494.121,386.78L492.392,388.509L490.586,386.704L490.586,368.532L492.048,367.071L493.854,368.876L494.121,368.609ZM494.121,391.779L494.121,423.245L490.586,423.245L490.586,391.703L492.048,390.241L493.854,392.047L494.121,391.779Z" style="fill:rgb(91,107,74);"/>
                            </g>
                            <g transform="matrix(0.74792,0,0,1.099177,125.434373,-33.737515)">
                                <path d="M490.586,363.533L490.586,332.471L494.121,332.471L494.121,363.609L492.392,365.338L490.586,363.533ZM494.121,368.609L494.121,386.78L492.392,388.509L490.586,386.704L490.586,368.532L492.048,367.071L493.854,368.876L494.121,368.609ZM494.121,391.779L494.121,416.213L490.586,416.213L490.586,391.703L492.048,390.241L493.854,392.047L494.121,391.779Z" style="fill:rgb(91,107,74);"/>
                            </g>
                            <g transform="matrix(0.74792,0,0,1.099177,119.697142,-33.604239)">
                                <rect x="498.257" y="332.35" width="3.535" height="83.741" style="fill:rgb(91,107,74);"/>
                            </g>
                        </g>
                    </g>
                    <g transform="matrix(0.945431,-0.945431,0.174297,0.174297,-48.759288,760.159517)">
                        <rect x="492.354" y="331.707" width="2.644" height="92.047" style="fill:rgb(91,107,74);"/>
                        <clipPath id="_clip2">
                            <rect x="492.354" y="331.707" width="2.644" height="92.047"/>
                        </clipPath>
                        <g clip-path="url(#_clip2)">
                            <g transform="matrix(0.52886,2.868663,-0.52886,2.868663,427.804479,-2040.767502)">
                                <path d="M490.586,368.532L474.543,352.489L477.042,349.989L492.392,365.338L491.354,366.377L492.048,367.071L490.586,368.532Z" style="fill:rgb(91,107,74);"/>
                            </g>
                        </g>
                    </g>
                    <g transform="matrix(0.945431,0.945431,-0.174297,0.174297,99.726628,-172.968788)">
                        <rect x="492.354" y="331.707" width="2.644" height="92.047" style="fill:rgb(91,107,74);"/>
                    </g>
                    <g transform="matrix(0.945431,-0.945431,0.174297,0.174297,-48.759288,783.330311)">
                        <rect x="492.354" y="331.707" width="2.644" height="92.047" style="fill:rgb(91,107,74);"/>
                        <clipPath id="_clip3">
                            <rect x="492.354" y="331.707" width="2.644" height="92.047"/>
                        </clipPath>
                        <g clip-path="url(#_clip3)">
                            <g transform="matrix(0.52886,2.868663,-0.52886,2.868663,440.058576,-2107.236701)">
                                <path d="M490.586,391.703L474.543,375.66L477.042,373.16L492.392,388.509L491.354,389.547L492.048,390.241L490.586,391.703Z" style="fill:rgb(91,107,74);"/>
                            </g>
                        </g>
                    </g>
                    <g transform="matrix(0.945431,0.945431,-0.174297,0.174297,99.726628,-149.797994)">
                        <rect x="492.354" y="331.707" width="2.644" height="92.047" style="fill:rgb(91,107,74);"/>
                    </g>
                </g>
            </g>
            <g>
                <g transform="matrix(1,0,0,1,-47.114837,6.960793)">
                    <g transform="matrix(29.166667,0,0,29.166667,419.829965,458.190324)">
                        <path d="M0.005,-0L0.327,-0.7L0.378,-0.7L0.7,-0L0.645,-0L0.341,-0.668L0.363,-0.668L0.06,-0L0.005,-0ZM0.123,-0.197L0.14,-0.24L0.559,-0.24L0.576,-0.197L0.123,-0.197Z" style="fill:white;fill-rule:nonzero;"/>
                    </g>
                    <g transform="matrix(29.166667,0,0,29.166667,454.975798,458.190324)">
                        <path d="M0.122,-0L0.122,-0.7L0.399,-0.7C0.473,-0.7 0.538,-0.685 0.594,-0.655C0.65,-0.625 0.694,-0.584 0.725,-0.531C0.756,-0.479 0.771,-0.418 0.771,-0.35C0.771,-0.282 0.756,-0.221 0.725,-0.169C0.694,-0.116 0.65,-0.075 0.594,-0.045C0.538,-0.015 0.473,-0 0.399,-0L0.122,-0ZM0.173,-0.046L0.395,-0.046C0.461,-0.046 0.519,-0.059 0.567,-0.085C0.616,-0.111 0.653,-0.147 0.68,-0.193C0.706,-0.238 0.72,-0.291 0.72,-0.35C0.72,-0.41 0.706,-0.462 0.68,-0.508C0.653,-0.553 0.616,-0.589 0.567,-0.615C0.519,-0.641 0.461,-0.654 0.395,-0.654L0.173,-0.654L0.173,-0.046Z" style="fill:white;fill-rule:nonzero;"/>
                    </g>
                    <g transform="matrix(29.166667,0,0,29.166667,493.650798,458.190324)">
                        <path d="M0.122,-0L0.122,-0.7L0.59,-0.7L0.59,-0.654L0.173,-0.654L0.173,-0.046L0.605,-0.046L0.605,-0L0.122,-0ZM0.167,-0.333L0.167,-0.378L0.546,-0.378L0.546,-0.333L0.167,-0.333Z" style="fill:white;fill-rule:nonzero;"/>
                    </g>
                    <g transform="matrix(29.166667,0,0,29.166667,527.746631,458.190324)">
                        <path d="M0.122,-0L0.122,-0.7L0.173,-0.7L0.173,-0.046L0.576,-0.046L0.576,-0L0.122,-0Z" style="fill:white;fill-rule:nonzero;"/>
                    </g>
                    <g transform="matrix(29.166667,0,0,29.166667,559.392465,458.190324)">
                        <path d="M0.005,-0L0.327,-0.7L0.378,-0.7L0.7,-0L0.645,-0L0.341,-0.668L0.363,-0.668L0.06,-0L0.005,-0ZM0.123,-0.197L0.14,-0.24L0.559,-0.24L0.576,-0.197L0.123,-0.197Z" style="fill:white;fill-rule:nonzero;"/>
                    </g>
                    <g transform="matrix(29.166667,0,0,29.166667,594.538298,458.190324)">
                        <rect x="0.122" y="-0.7" width="0.051" height="0.7" style="fill:white;fill-rule:nonzero;"/>
                    </g>
                    <g transform="matrix(29.166667,0,0,29.166667,617.725798,458.190324)">
                        <path d="M0.122,-0L0.122,-0.7L0.399,-0.7C0.473,-0.7 0.538,-0.685 0.594,-0.655C0.65,-0.625 0.694,-0.584 0.725,-0.531C0.756,-0.479 0.771,-0.418 0.771,-0.35C0.771,-0.282 0.756,-0.221 0.725,-0.169C0.694,-0.116 0.65,-0.075 0.594,-0.045C0.538,-0.015 0.473,-0 0.399,-0L0.122,-0ZM0.173,-0.046L0.395,-0.046C0.461,-0.046 0.519,-0.059 0.567,-0.085C0.616,-0.111 0.653,-0.147 0.68,-0.193C0.706,-0.238 0.72,-0.291 0.72,-0.35C0.72,-0.41 0.706,-0.462 0.68,-0.508C0.653,-0.553 0.616,-0.589 0.567,-0.615C0.519,-0.641 0.461,-0.654 0.395,-0.654L0.173,-0.654L0.173,-0.046Z" style="fill:white;fill-rule:nonzero;"/>
                    </g>
                    <g transform="matrix(29.166667,0,0,29.166667,656.400798,458.190324)">
                        <path d="M0.122,-0L0.122,-0.7L0.59,-0.7L0.59,-0.654L0.173,-0.654L0.173,-0.046L0.605,-0.046L0.605,-0L0.122,-0ZM0.167,-0.333L0.167,-0.378L0.546,-0.378L0.546,-0.333L0.167,-0.333Z" style="fill:white;fill-rule:nonzero;"/>
                    </g>
                    <g transform="matrix(29.166667,0,0,29.166667,675.913298,458.190324)">
                    </g>
                </g>
                <g transform="matrix(1,0,0,1,0.185527,-1.493645)">
                    <rect x="266.311" y="454.33" width="86.457" height="2.987" style="fill:rgb(91,107,74);"/>
                </g>
                <g transform="matrix(1,0,0,1,0.185527,-1.493645)">
                    <rect x="266.311" y="454.33" width="86.457" height="2.987" style="fill:rgb(91,107,74);"/>
                </g>
                <g transform="matrix(1,0,0,1,0.185527,-1.493645)">
                    <rect x="266.311" y="454.33" width="86.457" height="2.987" style="fill:rgb(91,107,74);"/>
                </g>
                <g transform="matrix(1,0,0,1,378.385578,0)">
                    <rect x="266.311" y="454.33" width="86.457" height="2.987" style="fill:rgb(91,107,74);"/>
                </g>
                <g transform="matrix(1,0,0,1,378.385578,0)">
                    <rect x="266.311" y="454.33" width="86.457" height="2.987" style="fill:rgb(91,107,74);"/>
                </g>
            </g>
            <g transform="matrix(16.666667,0,0,16.666667,314.058698,499.640886)">
                <path d="M0.122,-0L0.122,-0.7L0.165,-0.7L0.49,-0.139L0.467,-0.139L0.791,-0.7L0.833,-0.7L0.834,-0L0.784,-0L0.783,-0.623L0.797,-0.623L0.49,-0.093L0.465,-0.093L0.157,-0.623L0.172,-0.623L0.172,-0L0.122,-0Z" style="fill:white;fill-rule:nonzero;"/>
            </g>
            <g transform="matrix(16.666667,0,0,16.666667,333.325365,499.640886)">
                <path d="M0.122,-0L0.122,-0.7L0.59,-0.7L0.59,-0.654L0.173,-0.654L0.173,-0.046L0.605,-0.046L0.605,-0L0.122,-0ZM0.167,-0.333L0.167,-0.378L0.546,-0.378L0.546,-0.333L0.167,-0.333Z" style="fill:white;fill-rule:nonzero;"/>
            </g>
            <g transform="matrix(16.666667,0,0,16.666667,347.808698,499.640886)">
                <path d="M0.256,-0L0.256,-0.654L0.004,-0.654L0.004,-0.7L0.559,-0.7L0.559,-0.654L0.307,-0.654L0.307,-0L0.256,-0Z" style="fill:white;fill-rule:nonzero;"/>
            </g>
            <g transform="matrix(16.666667,0,0,16.666667,360.525365,499.640886)">
                <path d="M0.122,-0L0.122,-0.7L0.373,-0.7C0.461,-0.7 0.53,-0.679 0.58,-0.638C0.63,-0.596 0.655,-0.539 0.655,-0.464C0.655,-0.415 0.644,-0.373 0.621,-0.338C0.599,-0.303 0.566,-0.276 0.524,-0.258C0.482,-0.239 0.432,-0.229 0.373,-0.229L0.15,-0.229L0.173,-0.253L0.173,-0L0.122,-0ZM0.608,-0L0.426,-0.254L0.484,-0.254L0.666,-0L0.608,-0ZM0.173,-0.25L0.15,-0.274L0.373,-0.274C0.448,-0.274 0.505,-0.291 0.544,-0.324C0.584,-0.358 0.603,-0.404 0.603,-0.464C0.603,-0.525 0.584,-0.572 0.544,-0.605C0.505,-0.638 0.448,-0.654 0.373,-0.654L0.15,-0.654L0.173,-0.679L0.173,-0.25Z" style="fill:white;fill-rule:nonzero;"/>
            </g>
            <g transform="matrix(16.666667,0,0,16.666667,375.858698,499.640886)">
                <path d="M0.419,0.005C0.367,0.005 0.319,-0.004 0.274,-0.022C0.23,-0.039 0.191,-0.064 0.159,-0.097C0.126,-0.129 0.1,-0.166 0.082,-0.209C0.064,-0.252 0.055,-0.299 0.055,-0.35C0.055,-0.401 0.064,-0.448 0.082,-0.491C0.1,-0.534 0.126,-0.571 0.159,-0.604C0.191,-0.636 0.23,-0.661 0.274,-0.678C0.319,-0.696 0.367,-0.705 0.419,-0.705C0.471,-0.705 0.519,-0.696 0.564,-0.678C0.608,-0.661 0.646,-0.636 0.679,-0.604C0.712,-0.572 0.737,-0.534 0.756,-0.491C0.774,-0.448 0.783,-0.401 0.783,-0.35C0.783,-0.299 0.774,-0.252 0.756,-0.209C0.737,-0.166 0.712,-0.128 0.679,-0.096C0.646,-0.064 0.608,-0.039 0.564,-0.022C0.519,-0.004 0.471,0.005 0.419,0.005ZM0.419,-0.042C0.463,-0.042 0.505,-0.049 0.543,-0.065C0.581,-0.08 0.614,-0.102 0.642,-0.13C0.67,-0.158 0.692,-0.19 0.708,-0.228C0.723,-0.265 0.731,-0.306 0.731,-0.35C0.731,-0.394 0.724,-0.435 0.708,-0.472C0.692,-0.51 0.67,-0.542 0.642,-0.57C0.614,-0.598 0.581,-0.62 0.543,-0.635C0.505,-0.651 0.463,-0.658 0.419,-0.658C0.375,-0.658 0.333,-0.651 0.295,-0.635C0.257,-0.62 0.224,-0.598 0.196,-0.57C0.167,-0.542 0.145,-0.51 0.13,-0.472C0.114,-0.435 0.106,-0.394 0.106,-0.35C0.106,-0.306 0.114,-0.265 0.13,-0.228C0.145,-0.19 0.167,-0.158 0.196,-0.13C0.224,-0.102 0.257,-0.08 0.295,-0.065C0.333,-0.049 0.375,-0.042 0.419,-0.042Z" style="fill:white;fill-rule:nonzero;"/>
            </g>
            <g transform="matrix(16.666667,0,0,16.666667,393.158698,499.640886)">
            </g>
            <g transform="matrix(16.666667,0,0,16.666667,400.775365,499.640886)">
                <path d="M0.419,0.005C0.367,0.005 0.319,-0.004 0.274,-0.022C0.23,-0.039 0.191,-0.064 0.159,-0.097C0.126,-0.129 0.1,-0.166 0.082,-0.209C0.064,-0.252 0.055,-0.299 0.055,-0.35C0.055,-0.401 0.064,-0.448 0.082,-0.491C0.1,-0.534 0.126,-0.571 0.159,-0.604C0.191,-0.636 0.23,-0.661 0.274,-0.678C0.319,-0.696 0.367,-0.705 0.419,-0.705C0.471,-0.705 0.519,-0.696 0.564,-0.678C0.608,-0.661 0.646,-0.636 0.679,-0.604C0.712,-0.572 0.737,-0.534 0.756,-0.491C0.774,-0.448 0.783,-0.401 0.783,-0.35C0.783,-0.299 0.774,-0.252 0.756,-0.209C0.737,-0.166 0.712,-0.128 0.679,-0.096C0.646,-0.064 0.608,-0.039 0.564,-0.022C0.519,-0.004 0.471,0.005 0.419,0.005ZM0.419,-0.042C0.463,-0.042 0.505,-0.049 0.543,-0.065C0.581,-0.08 0.614,-0.102 0.642,-0.13C0.67,-0.158 0.692,-0.19 0.708,-0.228C0.723,-0.265 0.731,-0.306 0.731,-0.35C0.731,-0.394 0.724,-0.435 0.708,-0.472C0.692,-0.51 0.67,-0.542 0.642,-0.57C0.614,-0.598 0.581,-0.62 0.543,-0.635C0.505,-0.651 0.463,-0.658 0.419,-0.658C0.375,-0.658 0.333,-0.651 0.295,-0.635C0.257,-0.62 0.224,-0.598 0.196,-0.57C0.167,-0.542 0.145,-0.51 0.13,-0.472C0.114,-0.435 0.106,-0.394 0.106,-0.35C0.106,-0.306 0.114,-0.265 0.13,-0.228C0.145,-0.19 0.167,-0.158 0.196,-0.13C0.224,-0.102 0.257,-0.08 0.295,-0.065C0.333,-0.049 0.375,-0.042 0.419,-0.042Z" style="fill:white;fill-rule:nonzero;"/>
            </g>
            <g transform="matrix(16.666667,0,0,16.666667,418.075365,499.640886)">
                <path d="M0.396,0.005C0.309,0.005 0.241,-0.02 0.191,-0.071C0.141,-0.122 0.116,-0.197 0.116,-0.297L0.116,-0.7L0.167,-0.7L0.167,-0.299C0.167,-0.212 0.187,-0.147 0.227,-0.105C0.267,-0.063 0.324,-0.042 0.397,-0.042C0.47,-0.042 0.526,-0.063 0.566,-0.105C0.606,-0.147 0.626,-0.212 0.626,-0.299L0.626,-0.7L0.677,-0.7L0.677,-0.297C0.677,-0.197 0.652,-0.122 0.602,-0.071C0.552,-0.02 0.483,0.005 0.396,0.005Z" style="fill:white;fill-rule:nonzero;"/>
            </g>
            <g transform="matrix(16.666667,0,0,16.666667,434.392032,499.640886)">
                <path d="M0.256,-0L0.256,-0.654L0.004,-0.654L0.004,-0.7L0.559,-0.7L0.559,-0.654L0.307,-0.654L0.307,-0L0.256,-0Z" style="fill:white;fill-rule:nonzero;"/>
            </g>
            <g transform="matrix(16.666667,0,0,16.666667,447.108698,499.640886)">
                <path d="M0.122,-0L0.122,-0.7L0.399,-0.7C0.473,-0.7 0.538,-0.685 0.594,-0.655C0.65,-0.625 0.694,-0.584 0.725,-0.531C0.756,-0.479 0.771,-0.418 0.771,-0.35C0.771,-0.282 0.756,-0.221 0.725,-0.169C0.694,-0.116 0.65,-0.075 0.594,-0.045C0.538,-0.015 0.473,-0 0.399,-0L0.122,-0ZM0.173,-0.046L0.395,-0.046C0.461,-0.046 0.519,-0.059 0.567,-0.085C0.616,-0.111 0.653,-0.147 0.68,-0.193C0.706,-0.238 0.72,-0.291 0.72,-0.35C0.72,-0.41 0.706,-0.462 0.68,-0.508C0.653,-0.553 0.616,-0.589 0.567,-0.615C0.519,-0.641 0.461,-0.654 0.395,-0.654L0.173,-0.654L0.173,-0.046Z" style="fill:white;fill-rule:nonzero;"/>
            </g>
            <g transform="matrix(16.666667,0,0,16.666667,464.208698,499.640886)">
                <path d="M0.419,0.005C0.367,0.005 0.319,-0.004 0.274,-0.022C0.23,-0.039 0.191,-0.064 0.159,-0.097C0.126,-0.129 0.1,-0.166 0.082,-0.209C0.064,-0.252 0.055,-0.299 0.055,-0.35C0.055,-0.401 0.064,-0.448 0.082,-0.491C0.1,-0.534 0.126,-0.571 0.159,-0.604C0.191,-0.636 0.23,-0.661 0.274,-0.678C0.319,-0.696 0.367,-0.705 0.419,-0.705C0.471,-0.705 0.519,-0.696 0.564,-0.678C0.608,-0.661 0.646,-0.636 0.679,-0.604C0.712,-0.572 0.737,-0.534 0.756,-0.491C0.774,-0.448 0.783,-0.401 0.783,-0.35C0.783,-0.299 0.774,-0.252 0.756,-0.209C0.737,-0.166 0.712,-0.128 0.679,-0.096C0.646,-0.064 0.608,-0.039 0.564,-0.022C0.519,-0.004 0.471,0.005 0.419,0.005ZM0.419,-0.042C0.463,-0.042 0.505,-0.049 0.543,-0.065C0.581,-0.08 0.614,-0.102 0.642,-0.13C0.67,-0.158 0.692,-0.19 0.708,-0.228C0.723,-0.265 0.731,-0.306 0.731,-0.35C0.731,-0.394 0.724,-0.435 0.708,-0.472C0.692,-0.51 0.67,-0.542 0.642,-0.57C0.614,-0.598 0.581,-0.62 0.543,-0.635C0.505,-0.651 0.463,-0.658 0.419,-0.658C0.375,-0.658 0.333,-0.651 0.295,-0.635C0.257,-0.62 0.224,-0.598 0.196,-0.57C0.167,-0.542 0.145,-0.51 0.13,-0.472C0.114,-0.435 0.106,-0.394 0.106,-0.35C0.106,-0.306 0.114,-0.265 0.13,-0.228C0.145,-0.19 0.167,-0.158 0.196,-0.13C0.224,-0.102 0.257,-0.08 0.295,-0.065C0.333,-0.049 0.375,-0.042 0.419,-0.042Z" style="fill:white;fill-rule:nonzero;"/>
            </g>
            <g transform="matrix(16.666667,0,0,16.666667,481.508698,499.640886)">
                <path d="M0.419,0.005C0.367,0.005 0.319,-0.004 0.274,-0.022C0.23,-0.039 0.191,-0.064 0.159,-0.097C0.126,-0.129 0.1,-0.166 0.082,-0.209C0.064,-0.252 0.055,-0.299 0.055,-0.35C0.055,-0.401 0.064,-0.448 0.082,-0.491C0.1,-0.534 0.126,-0.571 0.159,-0.604C0.191,-0.636 0.23,-0.661 0.274,-0.678C0.319,-0.696 0.367,-0.705 0.419,-0.705C0.471,-0.705 0.519,-0.696 0.564,-0.678C0.608,-0.661 0.646,-0.636 0.679,-0.604C0.712,-0.572 0.737,-0.534 0.756,-0.491C0.774,-0.448 0.783,-0.401 0.783,-0.35C0.783,-0.299 0.774,-0.252 0.756,-0.209C0.737,-0.166 0.712,-0.128 0.679,-0.096C0.646,-0.064 0.608,-0.039 0.564,-0.022C0.519,-0.004 0.471,0.005 0.419,0.005ZM0.419,-0.042C0.463,-0.042 0.505,-0.049 0.543,-0.065C0.581,-0.08 0.614,-0.102 0.642,-0.13C0.67,-0.158 0.692,-0.19 0.708,-0.228C0.723,-0.265 0.731,-0.306 0.731,-0.35C0.731,-0.394 0.724,-0.435 0.708,-0.472C0.692,-0.51 0.67,-0.542 0.642,-0.57C0.614,-0.598 0.581,-0.62 0.543,-0.635C0.505,-0.651 0.463,-0.658 0.419,-0.658C0.375,-0.658 0.333,-0.651 0.295,-0.635C0.257,-0.62 0.224,-0.598 0.196,-0.57C0.167,-0.542 0.145,-0.51 0.13,-0.472C0.114,-0.435 0.106,-0.394 0.106,-0.35C0.106,-0.306 0.114,-0.265 0.13,-0.228C0.145,-0.19 0.167,-0.158 0.196,-0.13C0.224,-0.102 0.257,-0.08 0.295,-0.065C0.333,-0.049 0.375,-0.042 0.419,-0.042Z" style="fill:white;fill-rule:nonzero;"/>
            </g>
            <g transform="matrix(16.666667,0,0,16.666667,498.808698,499.640886)">
                <path d="M0.122,-0L0.122,-0.7L0.373,-0.7C0.461,-0.7 0.53,-0.679 0.58,-0.638C0.63,-0.596 0.655,-0.539 0.655,-0.464C0.655,-0.415 0.644,-0.373 0.621,-0.338C0.599,-0.303 0.566,-0.276 0.524,-0.258C0.482,-0.239 0.432,-0.229 0.373,-0.229L0.15,-0.229L0.173,-0.253L0.173,-0L0.122,-0ZM0.608,-0L0.426,-0.254L0.484,-0.254L0.666,-0L0.608,-0ZM0.173,-0.25L0.15,-0.274L0.373,-0.274C0.448,-0.274 0.505,-0.291 0.544,-0.324C0.584,-0.358 0.603,-0.404 0.603,-0.464C0.603,-0.525 0.584,-0.572 0.544,-0.605C0.505,-0.638 0.448,-0.654 0.373,-0.654L0.15,-0.654L0.173,-0.679L0.173,-0.25Z" style="fill:white;fill-rule:nonzero;"/>
            </g>
            <g transform="matrix(16.666667,0,0,16.666667,514.142032,499.640886)">
            </g>
            <g transform="matrix(16.666667,0,0,16.666667,521.758698,499.640886)">
                <path d="M0.122,-0L0.122,-0.7L0.165,-0.7L0.49,-0.139L0.467,-0.139L0.791,-0.7L0.833,-0.7L0.834,-0L0.784,-0L0.783,-0.623L0.797,-0.623L0.49,-0.093L0.465,-0.093L0.157,-0.623L0.172,-0.623L0.172,-0L0.122,-0Z" style="fill:white;fill-rule:nonzero;"/>
            </g>
            <g transform="matrix(16.666667,0,0,16.666667,541.025365,499.640886)">
                <path d="M0.005,-0L0.327,-0.7L0.378,-0.7L0.7,-0L0.645,-0L0.341,-0.668L0.363,-0.668L0.06,-0L0.005,-0ZM0.123,-0.197L0.14,-0.24L0.559,-0.24L0.576,-0.197L0.123,-0.197Z" style="fill:white;fill-rule:nonzero;"/>
            </g>
            <g transform="matrix(16.666667,0,0,16.666667,556.108698,499.640886)">
                <rect x="0.122" y="-0.7" width="0.051" height="0.7" style="fill:white;fill-rule:nonzero;"/>
            </g>
            <g transform="matrix(16.666667,0,0,16.666667,564.358698,499.640886)">
                <path d="M0.122,-0L0.122,-0.7L0.165,-0.7L0.664,-0.063L0.641,-0.063L0.641,-0.7L0.692,-0.7L0.692,-0L0.65,-0L0.15,-0.637L0.173,-0.637L0.173,-0L0.122,-0Z" style="fill:white;fill-rule:nonzero;"/>
            </g>
            <g transform="matrix(16.666667,0,0,16.666667,581.258698,499.640886)">
                <path d="M0.256,-0L0.256,-0.654L0.004,-0.654L0.004,-0.7L0.559,-0.7L0.559,-0.654L0.307,-0.654L0.307,-0L0.256,-0Z" style="fill:white;fill-rule:nonzero;"/>
            </g>
            <g transform="matrix(16.666667,0,0,16.666667,593.975365,499.640886)">
                <path d="M0.122,-0L0.122,-0.7L0.59,-0.7L0.59,-0.654L0.173,-0.654L0.173,-0.046L0.605,-0.046L0.605,-0L0.122,-0ZM0.167,-0.333L0.167,-0.378L0.546,-0.378L0.546,-0.333L0.167,-0.333Z" style="fill:white;fill-rule:nonzero;"/>
            </g>
            <g transform="matrix(16.666667,0,0,16.666667,608.458698,499.640886)">
                <path d="M0.122,-0L0.122,-0.7L0.165,-0.7L0.664,-0.063L0.641,-0.063L0.641,-0.7L0.692,-0.7L0.692,-0L0.65,-0L0.15,-0.637L0.173,-0.637L0.173,-0L0.122,-0Z" style="fill:white;fill-rule:nonzero;"/>
            </g>
            <g transform="matrix(16.666667,0,0,16.666667,625.358698,499.640886)">
                <path d="M0.005,-0L0.327,-0.7L0.378,-0.7L0.7,-0L0.645,-0L0.341,-0.668L0.363,-0.668L0.06,-0L0.005,-0ZM0.123,-0.197L0.14,-0.24L0.559,-0.24L0.576,-0.197L0.123,-0.197Z" style="fill:white;fill-rule:nonzero;"/>
            </g>
            <g transform="matrix(16.666667,0,0,16.666667,640.442032,499.640886)">
                <path d="M0.122,-0L0.122,-0.7L0.165,-0.7L0.664,-0.063L0.641,-0.063L0.641,-0.7L0.692,-0.7L0.692,-0L0.65,-0L0.15,-0.637L0.173,-0.637L0.173,-0L0.122,-0Z" style="fill:white;fill-rule:nonzero;"/>
            </g>
            <g transform="matrix(16.666667,0,0,16.666667,657.342032,499.640886)">
                <path d="M0.418,0.005C0.366,0.005 0.318,-0.004 0.274,-0.022C0.229,-0.039 0.191,-0.064 0.158,-0.096C0.126,-0.128 0.1,-0.166 0.082,-0.209C0.064,-0.252 0.055,-0.299 0.055,-0.35C0.055,-0.401 0.064,-0.448 0.082,-0.491C0.1,-0.534 0.126,-0.572 0.159,-0.604C0.191,-0.636 0.23,-0.661 0.274,-0.678C0.318,-0.696 0.366,-0.705 0.418,-0.705C0.467,-0.705 0.514,-0.697 0.557,-0.681C0.6,-0.665 0.637,-0.64 0.667,-0.608L0.635,-0.575C0.605,-0.604 0.572,-0.626 0.535,-0.639C0.499,-0.652 0.461,-0.658 0.42,-0.658C0.375,-0.658 0.334,-0.651 0.296,-0.635C0.257,-0.619 0.224,-0.598 0.196,-0.57C0.167,-0.542 0.145,-0.509 0.13,-0.472C0.114,-0.435 0.106,-0.394 0.106,-0.35C0.106,-0.306 0.114,-0.265 0.13,-0.228C0.145,-0.191 0.167,-0.158 0.196,-0.13C0.224,-0.102 0.257,-0.081 0.296,-0.065C0.334,-0.049 0.375,-0.042 0.42,-0.042C0.461,-0.042 0.499,-0.048 0.535,-0.061C0.572,-0.075 0.605,-0.096 0.635,-0.126L0.667,-0.093C0.637,-0.061 0.6,-0.036 0.557,-0.02C0.514,-0.003 0.467,0.005 0.418,0.005Z" style="fill:white;fill-rule:nonzero;"/>
            </g>
            <g transform="matrix(16.666667,0,0,16.666667,672.442032,499.640886)">
                <path d="M0.122,-0L0.122,-0.7L0.59,-0.7L0.59,-0.654L0.173,-0.654L0.173,-0.046L0.605,-0.046L0.605,-0L0.122,-0ZM0.167,-0.333L0.167,-0.378L0.546,-0.378L0.546,-0.333L0.167,-0.333Z" style="fill:white;fill-rule:nonzero;"/>
            </g>
            <g transform="matrix(16.666667,0,0,16.666667,683.592032,499.640886)">
            </g>
        </g>
    </g>
</svg>
