<?xml version="1.0" encoding="UTF-8" standalone="no"?>
<!DOCTYPE svg PUBLIC "-//W3C//DTD SVG 1.1//EN" "http://www.w3.org/Graphics/SVG/1.1/DTD/svg11.dtd">
<svg width="100%" height="100%" viewBox="0 0 245 245" version="1.1" xmlns="http://www.w3.org/2000/svg" xmlns:xlink="http://www.w3.org/1999/xlink" xml:space="preserve" xmlns:serif="http://www.serif.com/" style="fill-rule:evenodd;clip-rule:evenodd;stroke-linejoin:round;stroke-miterlimit:2;">
    <g transform="matrix(1,0,0,1,-626.291011,-348.140568)">
        <g id="Favion" transform="matrix(1,0,0,1,283.509782,-71.063034)">
            <g transform="matrix(1.098781,0,0,1.098781,-357.451344,12.521537)">
                <path d="M859.799,414.625L859.799,548.136C859.799,572.698 839.858,592.639 815.296,592.639L681.785,592.639C657.223,592.639 637.281,572.698 637.281,548.136L637.281,414.625C637.281,390.063 657.223,370.121 681.785,370.121L815.296,370.121C839.858,370.121 859.799,390.063 859.799,414.625Z" style="fill:rgb(30,30,30);"/>
            </g>
            <g transform="matrix(1,0,0,1,7.67091,-0.121251)">
                <g transform="matrix(1.690481,0,0,1.690481,-374.913325,-72.743505)">
                    <path d="M478.385,415.524C475.72,414.899 473.138,414.086 470.639,413.085C463.983,410.418 458.196,406.676 453.279,401.859C448.362,397.042 444.537,391.413 441.804,384.972C439.071,378.53 437.704,371.484 437.704,363.834C437.704,356.184 439.071,349.138 441.804,342.698C444.537,336.256 448.363,330.624 453.283,325.802C458.205,320.98 463.989,317.238 470.634,314.578C477.281,311.915 484.521,310.584 492.354,310.584C500.187,310.584 507.421,311.912 514.057,314.568C520.694,317.224 526.469,320.958 531.382,325.769C536.296,330.578 540.119,336.21 542.852,342.665C545.587,349.118 546.954,356.176 546.954,363.838C546.954,371.503 545.587,378.56 542.852,385.01C540.119,391.46 536.296,397.09 531.382,401.901C526.469,406.71 520.694,410.443 514.057,413.099C511.792,414.006 509.458,414.758 507.055,415.355L507.055,407.985C508.363,407.589 509.647,407.135 510.907,406.626C516.61,404.321 521.576,401.071 525.806,396.876C530.037,392.681 533.328,387.787 535.678,382.195C538.028,376.601 539.203,370.476 539.203,363.82C539.203,357.162 538.029,351.043 535.683,345.463C533.337,339.882 530.048,334.993 525.815,330.796C521.584,326.599 516.616,323.349 510.912,321.044C505.207,318.738 499.021,317.585 492.354,317.585C485.687,317.585 479.497,318.738 473.784,321.046C468.073,323.353 463.098,326.605 458.859,330.803C454.622,335.002 451.328,339.893 448.978,345.478C446.628,351.06 445.453,357.174 445.453,363.817C445.453,370.461 446.627,376.58 448.976,382.174C451.324,387.767 454.615,392.667 458.85,396.874C463.086,401.08 468.062,404.333 473.777,406.633C475.28,407.238 476.816,407.763 478.385,408.209L478.385,415.524Z" style="fill:white;"/>
                </g>
                <g id="Tree-in-O" serif:id="Tree in O" transform="matrix(1.690481,0,0,1.690481,-374.913325,-72.743505)">
                    <g transform="matrix(1.337041,0,0,0.909771,-167.710853,30.69342)">
                        <rect x="492.354" y="331.707" width="2.644" height="92.047" style="fill:rgb(235,235,235);"/>
                        <clipPath id="_clip1">
                            <rect x="492.354" y="331.707" width="2.644" height="92.047"/>
                        </clipPath>
                        <g clip-path="url(#_clip1)">
                            <g transform="matrix(0.74792,0,0,1.014025,125.434373,-5.426833)">
                                <path d="M490.586,363.533L490.586,332.471L494.121,332.471L494.121,363.609L492.392,365.338L490.586,363.533ZM494.121,368.609L494.121,386.78L492.392,388.509L490.586,386.704L490.586,368.532L492.048,367.071L493.854,368.876L494.121,368.609ZM494.121,391.779L494.121,423.245L490.586,423.245L490.586,391.703L492.048,390.241L493.854,392.047L494.121,391.779Z" style="fill:rgb(91,107,74);"/>
                            </g>
                            <g transform="matrix(0.74792,0,0,1.099177,125.434373,-33.737515)">
                                <path d="M490.586,363.533L490.586,332.471L494.121,332.471L494.121,363.609L492.392,365.338L490.586,363.533ZM494.121,368.609L494.121,386.78L492.392,388.509L490.586,386.704L490.586,368.532L492.048,367.071L493.854,368.876L494.121,368.609ZM494.121,391.779L494.121,416.213L490.586,416.213L490.586,391.703L492.048,390.241L493.854,392.047L494.121,391.779Z" style="fill:rgb(91,107,74);"/>
                            </g>
                            <g transform="matrix(0.74792,0,0,1.099177,119.697142,-33.604239)">
                                <rect x="498.257" y="332.35" width="3.535" height="83.741" style="fill:rgb(91,107,74);"/>
                            </g>
                        </g>
                    </g>
                    <g transform="matrix(0.945431,-0.945431,0.174297,0.174297,-48.759288,760.159517)">
                        <rect x="492.354" y="331.707" width="2.644" height="92.047" style="fill:rgb(91,107,74);"/>
                        <clipPath id="_clip2">
                            <rect x="492.354" y="331.707" width="2.644" height="92.047"/>
                        </clipPath>
                        <g clip-path="url(#_clip2)">
                            <g transform="matrix(0.52886,2.868663,-0.52886,2.868663,427.804479,-2040.767502)">
                                <path d="M490.586,368.532L474.543,352.489L477.042,349.989L492.392,365.338L491.354,366.377L492.048,367.071L490.586,368.532Z" style="fill:rgb(91,107,74);"/>
                            </g>
                        </g>
                    </g>
                    <g transform="matrix(0.945431,0.945431,-0.174297,0.174297,99.726628,-172.968788)">
                        <rect x="492.354" y="331.707" width="2.644" height="92.047" style="fill:rgb(91,107,74);"/>
                    </g>
                    <g transform="matrix(0.945431,-0.945431,0.174297,0.174297,-48.759288,783.330311)">
                        <rect x="492.354" y="331.707" width="2.644" height="92.047" style="fill:rgb(91,107,74);"/>
                        <clipPath id="_clip3">
                            <rect x="492.354" y="331.707" width="2.644" height="92.047"/>
                        </clipPath>
                        <g clip-path="url(#_clip3)">
                            <g transform="matrix(0.52886,2.868663,-0.52886,2.868663,440.058576,-2107.236701)">
                                <path d="M490.586,391.703L474.543,375.66L477.042,373.16L492.392,388.509L491.354,389.547L492.048,390.241L490.586,391.703Z" style="fill:rgb(91,107,74);"/>
                            </g>
                        </g>
                    </g>
                    <g transform="matrix(0.945431,0.945431,-0.174297,0.174297,99.726628,-149.797994)">
                        <rect x="492.354" y="331.707" width="2.644" height="92.047" style="fill:rgb(91,107,74);"/>
                    </g>
                </g>
            </g>
        </g>
    </g>
</svg>
